<?xml version="1.0" encoding="utf-8"?>
<!-- Generator: Adobe Illustrator 21.1.0, SVG Export Plug-In . SVG Version: 6.00 Build 0)  -->
<svg version="1.1" id="Layer_1" xmlns="http://www.w3.org/2000/svg" xmlns:xlink="http://www.w3.org/1999/xlink" x="0px" y="0px"
	 viewBox="0 0 800 800" style="enable-background:new 0 0 800 800;" xml:space="preserve">
<style type="text/css">
	.st0{fill:#EC3935;}
	.st1{fill:none;}
	.st2{fill:#D81C2B;}
	.st3{fill:#FFFFFF;}
	.st4{fill:#FFFFFF;stroke:#FFFFFF;stroke-width:17;stroke-miterlimit:10;}
</style>
<path class="st0" d="M400,800L400,800C179.1,800,0,620.9,0,400v0C0,179.1,179.1,0,400,0h0c220.9,0,400,179.1,400,400v0
	C800,620.9,620.9,800,400,800z"/>
<g>
	<path class="st1" d="M513.9,783.6l16.5,16.4H650c82.8,0,150-67.2,150-150V400C800,581.4,679.3,734.5,513.9,783.6z"/>
	<path class="st1" d="M799.2,374.5c0.5,8.4,0.8,17,0.8,25.5v-24.7L799.2,374.5z"/>
	<path class="st2" d="M618.7,189.3L532.1,238l-234,131.9l-113.1,86l328.8,327.6C679.3,734.5,800,581.4,800,400v0
		c0-8.6-0.3-17.1-0.8-25.5L618.7,189.3z"/>
</g>
<g>
	<circle class="st3" cx="546" cy="238" r="87.5"/>
	<circle class="st3" cx="546" cy="556.7" r="87.5"/>
	<circle class="st3" cx="250.3" cy="397.7" r="87.5"/>
	<line class="st4" x1="324.3" y1="358.3" x2="473.7" y2="277.7"/>
	<line class="st4" x1="325.3" y1="438.3" x2="475.7" y2="520.7"/>
</g>
</svg>
